<svg xmlns="http://www.w3.org/2000/svg" width="20.454" height="22.727" viewBox="0 0 20.454 22.727">
  <g id="dustbin" transform="translate(-5.161 -1.5)">
    <path id="Path_6" data-name="Path 6" d="M24.651,33.417H12.806a.956.956,0,0,1-.947-.871L10.506,16.387a.31.31,0,0,1,.31-.336H26.643a.31.31,0,0,1,.31.336L25.6,32.546A.956.956,0,0,1,24.651,33.417Zm-13.5-16.745,1.325,15.822a.331.331,0,0,0,.328.3H24.651a.331.331,0,0,0,.328-.3L26.3,16.672Z" transform="translate(-3.34 -9.69)" fill="#8b8b8b" stroke="#8c8c8c" stroke-width="1"/>
    <path id="Path_7" data-name="Path 7" d="M24.443,11.595H6.334a.674.674,0,0,1-.673-.673V9.358a.673.673,0,0,1,.673-.673H24.443a.673.673,0,0,1,.673.673v1.565a.674.674,0,0,1-.673.672ZM6.334,9.306a.052.052,0,0,0-.052.052v1.565a.052.052,0,0,0,.052.052H24.443a.052.052,0,0,0,.052-.052V9.358a.052.052,0,0,0-.052-.052Z" transform="translate(0 -4.61)" fill="#8b8b8b" stroke="#8c8c8c" stroke-width="1"/>
    <path id="Path_8" data-name="Path 8" d="M32.969,4.7H27.5a.31.31,0,0,1-.31-.31V2.813A.814.814,0,0,1,28,2h4.466a.814.814,0,0,1,.813.813V4.385A.31.31,0,0,1,32.969,4.7Zm-5.16-.621h4.849V2.813a.192.192,0,0,0-.192-.192H28a.192.192,0,0,0-.192.192Z" transform="translate(-14.845)" fill="#8b8b8b" stroke="#8c8c8c" stroke-width="1"/>
    <path id="Path_9" data-name="Path 9" d="M46.772,36.633h-.027a.31.31,0,0,1-.282-.336l.71-8.111a.31.31,0,1,1,.618.054l-.71,8.109A.31.31,0,0,1,46.772,36.633Z" transform="translate(-28.137 -17.863)" fill="#8b8b8b" stroke="#8c8c8c" stroke-width="1"/>
    <path id="Path_10" data-name="Path 10" d="M36.31,36.631a.31.31,0,0,1-.31-.31V28.21a.31.31,0,1,1,.621,0v8.11A.31.31,0,0,1,36.31,36.631Z" transform="translate(-20.922 -17.861)" fill="#8b8b8b" stroke="#8c8c8c" stroke-width="1"/>
    <path id="Path_11" data-name="Path 11" d="M24.271,36.631a.31.31,0,0,1-.31-.283l-.709-8.11a.31.31,0,1,1,.618-.054l.71,8.111a.31.31,0,0,1-.282.336Z" transform="translate(-12.13 -17.861)" fill="#8b8b8b" stroke="#8c8c8c" stroke-width="1"/>
  </g>
</svg>
