<svg xmlns="http://www.w3.org/2000/svg" width="22.552" height="22.279" viewBox="0 0 22.552 22.279">
  <g id="edit" transform="translate(0.25 -0.011)">
    <path id="Path_12" data-name="Path 12" d="M20.2,50.718a.545.545,0,0,0-.545.545V56.1a1.637,1.637,0,0,1-1.635,1.635H2.726A1.637,1.637,0,0,1,1.09,56.1V41.9a1.637,1.637,0,0,1,1.635-1.635h4.84a.545.545,0,0,0,0-1.09H2.726A2.729,2.729,0,0,0,0,41.9V56.1a2.729,2.729,0,0,0,2.726,2.726h15.3A2.729,2.729,0,0,0,20.747,56.1v-4.84a.545.545,0,0,0-.545-.545Zm0,0" transform="translate(0 -36.79)" fill="#8c8c8c" stroke="#8c8c8c" stroke-width="0.5"/>
    <path id="Path_13" data-name="Path 13" d="M122.824.979a2.453,2.453,0,0,0-3.469,0L109.629,10.7a.545.545,0,0,0-.14.24l-1.279,4.617a.545.545,0,0,0,.671.671l4.617-1.279a.545.545,0,0,0,.24-.14l9.725-9.726a2.456,2.456,0,0,0,0-3.469Zm-12.007,10.08,7.96-7.96,2.567,2.567-7.96,7.96Zm-.513,1.029,2.051,2.051-2.837.786Zm12.389-7.771-.578.578-2.567-2.567.578-.578a1.363,1.363,0,0,1,1.927,0l.64.64A1.365,1.365,0,0,1,122.693,4.317Zm0,0" transform="translate(-102.292 0)" fill="#8c8c8c" stroke="#8c8c8c" stroke-width="0.5"/>
  </g>
</svg>
